<svg xmlns="http://www.w3.org/2000/svg" viewBox="0 0 24 24" width="512" height="512">
    <path d="M 14 2 L 2 4 L 2 20 L 14 22 L 14 2 z M 15 4 L 15 7 L 20 7 L 20 8 L 15 8 L 15 10 L 20 10 L 20 11 L 15 11 L 15 13 L 20 13 L 20 14 L 15 14 L 15 16 L 20 16 L 20 17 L 15 17 L 15 20 L 20 20 C 21.105 20 22 19.105 22 18 L 22 6 C 22 4.895 21.105 4 20 4 L 15 4 z M 4 8 L 5.40625 8 L 6.1875 13.3125 C 6.2255 13.5385 6.241 13.87 6.25 14.25 L 6.28125 14.25 C 6.29025 13.972 6.34025 13.6525 6.40625 13.3125 L 7.4375 8 L 8.8125 8 L 9.75 13.375 C 9.788 13.57 9.81575 13.84775 9.84375 14.21875 C 9.85275 13.93075 9.9005 13.65275 9.9375 13.34375 L 10.71875 8 L 12 8 L 10.5 16 L 9.09375 16 L 8.125 10.875 C 8.078 10.608 8.0725 10.29775 8.0625 9.96875 L 8.03125 9.96875 C 8.01225 10.32875 7.9845 10.638 7.9375 10.875 L 6.96875 16 L 5.5 16 L 4 8 z"/>
</svg>